<svg width="262" height="286" viewBox="0 0 262 286" fill="none" xmlns="http://www.w3.org/2000/svg">
<mask id="mask0_2217_617" style="mask-type:alpha" maskUnits="userSpaceOnUse" x="77" y="0" width="107" height="158">
<path d="M121.534 117.337C113.55 114.701 106.232 110.369 100.081 104.638C93.9297 98.9064 89.092 91.9116 85.8999 84.1338C82.7077 76.356 81.2367 67.9794 81.588 59.5794C81.9392 51.1793 84.1043 42.9548 87.9347 35.4706C91.765 27.9865 97.1697 21.42 103.778 16.2221C110.386 11.0242 118.041 7.31811 126.216 5.35829C134.392 3.39848 142.895 3.23138 151.142 4.86848C159.388 6.50558 167.183 9.90809 173.99 14.8423" stroke="white" stroke-width="7.50653" stroke-miterlimit="10"/>
<path d="M180.463 103.721C169.581 114.345 154.975 120.292 139.767 120.292C138.969 120.292 138.17 120.292 137.383 120.292" stroke="white" stroke-width="7.50653" stroke-miterlimit="10"/>
<path d="M129.518 157.516L128.439 73.3623V72.2835C129.294 74.009 130.521 75.5234 132.032 76.7177C133.917 78.1878 136.012 79.3662 138.247 80.2133C151.333 85.2301 166.449 78.4439 171.002 65.2059C172.705 60.2801 172.818 54.9437 171.326 49.95C169.833 44.9563 166.81 40.5575 162.682 37.3745C158.555 34.1914 153.533 32.385 148.323 32.2101C143.114 32.0351 137.982 33.5006 133.65 36.3996" stroke="white" stroke-width="7.50653" stroke-miterlimit="10"/>
</mask>
<g mask="url(#mask0_2217_617)">
<rect width="120.322" height="150.211" transform="matrix(-1 0 0 1 192.81 -6.97705)" fill="white"/>
</g>
<path d="M24.8088 216.12C13.1579 216.12 3.92174 206.582 3.92174 194.81C3.92174 183.038 13.1579 173.5 24.8088 173.5C30.6644 173.5 35.9163 175.915 39.5383 179.779L36.7011 182.314C33.7431 179.175 29.457 177.243 24.8088 177.243C15.3311 177.243 7.90597 185.151 7.90597 194.81C7.90597 204.469 15.3311 212.377 24.8088 212.377C29.457 212.377 33.6827 210.445 36.7011 207.306L39.5383 209.841C35.9163 213.705 30.6644 216.12 24.8088 216.12ZM59.1458 216.12C51.117 216.12 44.4163 210.264 44.4163 201.33C44.4163 192.395 51.117 186.721 59.1458 186.721C67.1747 186.721 73.9358 192.395 73.9358 201.33C73.9358 210.264 67.1747 216.12 59.1458 216.12ZM59.1458 212.437C65.0618 212.437 70.0723 208.03 70.0723 201.33C70.0723 194.689 65.0618 190.403 59.1458 190.403C53.1695 190.403 48.2798 194.689 48.2798 201.33C48.2798 208.03 53.1695 212.437 59.1458 212.437ZM102.428 187.324H106.292V215.516H102.428V210.566C100.738 214.55 96.1499 216.12 92.6486 216.12C85.8271 216.12 81.1789 211.532 81.2392 203.744V187.324H85.1027V203.563C85.1027 208.996 88.4833 212.316 93.0712 212.316C97.5384 212.316 102.368 209.781 102.428 202.96V187.324ZM128.708 186.721C130.278 186.721 132.089 187.023 133.175 187.566L132.451 191.248C131.002 190.645 129.674 190.464 128.648 190.464C121.947 190.464 119.894 197.949 119.894 204.891V215.516H115.971V187.324H119.894V194.206C121.283 189.437 124.301 186.721 128.708 186.721ZM150.743 187.324V190.645H144.284V215.516H140.481V190.645H135.35V187.324H140.481V176.096H144.284V187.324H150.743ZM164.439 216.12C159.55 216.12 154.66 213.282 154.177 207.91H157.738C158.161 210.264 160.334 212.679 164.439 212.679C168.484 212.679 170.959 210.687 170.959 207.849C170.959 205.555 169.389 204.046 166.492 203.322L162.447 202.356C158.463 201.39 155.263 199.337 155.263 194.629C155.263 190.041 159.187 186.721 164.56 186.721C169.269 186.721 173.615 189.317 173.796 194.387H170.053C169.872 191.852 167.397 190.162 164.62 190.162C161.361 190.162 159.127 192.033 159.127 194.689C159.127 197.345 161.421 198.492 163.473 198.975L167.639 200.002C173.132 201.33 174.822 204.65 174.822 207.91C174.822 212.92 170.295 216.12 164.439 216.12ZM184.283 179.658C182.713 179.658 181.325 178.511 181.325 176.941C181.325 175.311 182.713 174.164 184.283 174.164C185.973 174.164 187.301 175.311 187.301 176.941C187.301 178.511 185.973 179.658 184.283 179.658ZM182.351 215.516V187.324H186.214V215.516H182.351ZM219.454 171.448H223.318V215.516H219.454V210.022C217.342 213.886 212.935 216.12 208.226 216.12C200.378 216.12 193.919 209.962 193.919 201.39C193.919 192.818 200.318 186.721 208.226 186.721C212.995 186.721 217.342 188.954 219.454 192.757V171.448ZM208.528 212.437C214.384 212.437 219.454 208.03 219.454 201.511C219.454 194.689 214.142 190.403 208.528 190.403C202.612 190.403 197.783 195.112 197.783 201.33C197.783 207.608 202.612 212.437 208.528 212.437ZM259.311 201.33C259.311 201.873 259.311 202.477 259.25 203.02H234.983C235.647 209.057 239.873 212.437 245.547 212.437C249.411 212.437 252.852 210.687 254.723 207.608L258.043 209.057C255.568 213.584 250.739 216.12 245.426 216.12C237.458 216.12 231.059 210.264 231.059 201.33C231.059 192.395 237.458 186.721 245.426 186.721C253.455 186.721 259.311 192.395 259.311 201.33ZM235.043 199.7H255.508C254.964 193.844 250.92 190.403 245.426 190.403C239.873 190.403 235.768 193.663 235.043 199.7ZM119.27 246.156C124.15 246.156 126.15 249.596 126.15 253.076C126.15 256.556 124.15 259.956 119.19 259.956H112.59V268.516H109.99V246.156H119.27ZM119.07 257.556C122.31 257.556 123.55 255.356 123.55 253.076C123.55 250.796 122.31 248.516 119.23 248.516H112.59V257.556H119.07ZM157.665 268.516L155.385 262.676H144.825L142.545 268.516H139.785L148.705 246.156H151.505L160.385 268.516H157.665ZM145.745 260.396H154.465L150.105 249.276L145.745 260.396ZM177.543 268.516V246.156H186.503C193.143 246.156 196.943 251.036 196.943 257.396C196.943 263.716 193.143 268.516 186.503 268.516H177.543ZM180.143 266.156H186.503C191.583 266.156 194.383 262.276 194.383 257.396C194.383 252.476 191.583 248.516 186.503 248.516H180.143V266.156ZM218.293 266.156H229.693V268.516H215.733V246.156H229.333V248.516H218.293V256.316H227.933V258.716H218.293V266.156ZM248.416 268.516V246.156H251.016V266.156H260.856V268.516H248.416Z" fill="white"/>
</svg>
