<svg width="261" height="286" viewBox="0 0 261 286" fill="none" xmlns="http://www.w3.org/2000/svg">
<mask id="mask0_2217_616" style="mask-type:alpha" maskUnits="userSpaceOnUse" x="77" y="0" width="106" height="158">
<path d="M121.034 117.337C113.05 114.701 105.732 110.369 99.5808 104.638C93.4297 98.9064 88.592 91.9116 85.3999 84.1338C82.2077 76.356 80.7367 67.9794 81.088 59.5794C81.4392 51.1793 83.6043 42.9548 87.4347 35.4706C91.265 27.9865 96.6697 21.42 103.278 16.2221C109.886 11.0242 117.541 7.31811 125.716 5.35829C133.892 3.39848 142.395 3.23138 150.642 4.86848C158.888 6.50558 166.683 9.90809 173.49 14.8423" stroke="white" stroke-width="7.50653" stroke-miterlimit="10"/>
<path d="M179.963 103.721C169.081 114.345 154.475 120.292 139.267 120.292C138.469 120.292 137.67 120.292 136.883 120.292" stroke="white" stroke-width="7.50653" stroke-miterlimit="10"/>
<path d="M129.018 157.516L127.939 73.3623V72.2835C128.794 74.009 130.021 75.5234 131.532 76.7177C133.417 78.1878 135.512 79.3662 137.747 80.2133C150.833 85.2301 165.949 78.4439 170.502 65.2059C172.205 60.2801 172.318 54.9437 170.826 49.95C169.333 44.9563 166.31 40.5575 162.182 37.3745C158.055 34.1914 153.033 32.385 147.823 32.2101C142.614 32.0351 137.482 33.5006 133.15 36.3996" stroke="white" stroke-width="7.50653" stroke-miterlimit="10"/>
</mask>
<g mask="url(#mask0_2217_616)">
<rect width="120.322" height="150.211" transform="matrix(-1 0 0 1 192.31 -6.97705)" fill="url(#paint0_linear_2217_616)"/>
</g>
<path d="M24.3088 216.12C12.6579 216.12 3.42174 206.582 3.42174 194.81C3.42174 183.038 12.6579 173.5 24.3088 173.5C30.1644 173.5 35.4163 175.915 39.0383 179.779L36.2011 182.314C33.2431 179.175 28.957 177.243 24.3088 177.243C14.8311 177.243 7.40597 185.151 7.40597 194.81C7.40597 204.469 14.8311 212.377 24.3088 212.377C28.957 212.377 33.1827 210.445 36.2011 207.306L39.0383 209.841C35.4163 213.705 30.1644 216.12 24.3088 216.12ZM58.6458 216.12C50.617 216.12 43.9163 210.264 43.9163 201.33C43.9163 192.395 50.617 186.721 58.6458 186.721C66.6747 186.721 73.4358 192.395 73.4358 201.33C73.4358 210.264 66.6747 216.12 58.6458 216.12ZM58.6458 212.437C64.5618 212.437 69.5723 208.03 69.5723 201.33C69.5723 194.689 64.5618 190.403 58.6458 190.403C52.6695 190.403 47.7798 194.689 47.7798 201.33C47.7798 208.03 52.6695 212.437 58.6458 212.437ZM101.928 187.324H105.792V215.516H101.928V210.566C100.238 214.55 95.6499 216.12 92.1486 216.12C85.3271 216.12 80.6789 211.532 80.7392 203.744V187.324H84.6027V203.563C84.6027 208.996 87.9833 212.316 92.5712 212.316C97.0384 212.316 101.868 209.781 101.928 202.96V187.324ZM128.208 186.721C129.778 186.721 131.589 187.023 132.675 187.566L131.951 191.248C130.502 190.645 129.174 190.464 128.148 190.464C121.447 190.464 119.394 197.949 119.394 204.891V215.516H115.471V187.324H119.394V194.206C120.783 189.437 123.801 186.721 128.208 186.721ZM150.243 187.324V190.645H143.784V215.516H139.981V190.645H134.85V187.324H139.981V176.096H143.784V187.324H150.243ZM163.939 216.12C159.05 216.12 154.16 213.282 153.677 207.91H157.238C157.661 210.264 159.834 212.679 163.939 212.679C167.984 212.679 170.459 210.687 170.459 207.849C170.459 205.555 168.889 204.046 165.992 203.322L161.947 202.356C157.963 201.39 154.763 199.337 154.763 194.629C154.763 190.041 158.687 186.721 164.06 186.721C168.769 186.721 173.115 189.317 173.296 194.387H169.553C169.372 191.852 166.897 190.162 164.12 190.162C160.861 190.162 158.627 192.033 158.627 194.689C158.627 197.345 160.921 198.492 162.973 198.975L167.139 200.002C172.632 201.33 174.322 204.65 174.322 207.91C174.322 212.92 169.795 216.12 163.939 216.12ZM183.783 179.658C182.213 179.658 180.825 178.511 180.825 176.941C180.825 175.311 182.213 174.164 183.783 174.164C185.473 174.164 186.801 175.311 186.801 176.941C186.801 178.511 185.473 179.658 183.783 179.658ZM181.851 215.516V187.324H185.714V215.516H181.851ZM218.954 171.448H222.818V215.516H218.954V210.022C216.842 213.886 212.435 216.12 207.726 216.12C199.878 216.12 193.419 209.962 193.419 201.39C193.419 192.818 199.818 186.721 207.726 186.721C212.495 186.721 216.842 188.954 218.954 192.757V171.448ZM208.028 212.437C213.884 212.437 218.954 208.03 218.954 201.511C218.954 194.689 213.642 190.403 208.028 190.403C202.112 190.403 197.283 195.112 197.283 201.33C197.283 207.608 202.112 212.437 208.028 212.437ZM258.811 201.33C258.811 201.873 258.811 202.477 258.75 203.02H234.483C235.147 209.057 239.373 212.437 245.047 212.437C248.911 212.437 252.352 210.687 254.223 207.608L257.543 209.057C255.068 213.584 250.239 216.12 244.926 216.12C236.958 216.12 230.559 210.264 230.559 201.33C230.559 192.395 236.958 186.721 244.926 186.721C252.955 186.721 258.811 192.395 258.811 201.33ZM234.543 199.7H255.008C254.464 193.844 250.42 190.403 244.926 190.403C239.373 190.403 235.268 193.663 234.543 199.7ZM118.77 246.156C123.65 246.156 125.65 249.596 125.65 253.076C125.65 256.556 123.65 259.956 118.69 259.956H112.09V268.516H109.49V246.156H118.77ZM118.57 257.556C121.81 257.556 123.05 255.356 123.05 253.076C123.05 250.796 121.81 248.516 118.73 248.516H112.09V257.556H118.57ZM157.165 268.516L154.885 262.676H144.325L142.045 268.516H139.285L148.205 246.156H151.005L159.885 268.516H157.165ZM145.245 260.396H153.965L149.605 249.276L145.245 260.396ZM177.043 268.516V246.156H186.003C192.643 246.156 196.443 251.036 196.443 257.396C196.443 263.716 192.643 268.516 186.003 268.516H177.043ZM179.643 266.156H186.003C191.083 266.156 193.883 262.276 193.883 257.396C193.883 252.476 191.083 248.516 186.003 248.516H179.643V266.156ZM217.793 266.156H229.193V268.516H215.233V246.156H228.833V248.516H217.793V256.316H227.433V258.716H217.793V266.156ZM247.916 268.516V246.156H250.516V266.156H260.356V268.516H247.916Z" fill="#D9AD62"/>
<defs>
<linearGradient id="paint0_linear_2217_616" x1="0" y1="75.1056" x2="120.322" y2="75.1056" gradientUnits="userSpaceOnUse">
<stop stop-color="#FFCE7C"/>
<stop offset="1" stop-color="#967236"/>
</linearGradient>
</defs>
</svg>
